<svg width="60" height="60" viewBox="0 0 60 60" fill="none" xmlns="http://www.w3.org/2000/svg">
<path d="M42.375 15C42.4992 13.7508 42.4992 12.6258 42.4992 11.25H17.5008C17.5008 12.6258 17.5008 13.7508 17.6251 15H10.0009V16.2492C10.0009 27.375 24.1267 35.25 27.5017 36.9984L27.4993 41.2499C27.4993 43.3757 25.8751 44.9999 23.7493 44.9999H21.2485V49.9991H38.7493V44.9999H36.2485C34.1227 44.9999 32.4985 43.3757 32.4985 41.2499V37.0007C35.8735 35.2499 49.9993 27.3749 49.9993 16.2515V15.0023L42.375 15ZM12.6258 17.5008H17.8758C18.375 23.1258 19.7508 27.1266 21.2508 30C17.25 26.8758 13.125 22.5 12.6258 17.5008ZM38.8758 30C40.3758 27.1242 41.7516 23.1258 42.2508 17.5008H47.5008C46.875 22.5 42.75 26.8758 38.8758 30Z" fill="#F57059"/>
</svg>
