<svg width="42" height="42" viewBox="0 0 42 42" fill="none" xmlns="http://www.w3.org/2000/svg">
<path d="M31.5 16.6244C31.5 15.5744 30.8881 14.6114 29.925 14.2619C30.5369 13.4744 30.6256 12.3375 30.1005 11.3744C29.5755 10.4114 28.5255 9.97499 27.5625 10.0619C27.6494 9.09887 27.213 8.04887 26.25 7.52387C25.2869 6.99887 24.2369 7.08581 23.3625 7.69942C23.013 6.738 22.05 6.12442 21 6.12442C19.95 6.12442 18.9869 6.73636 18.6375 7.69942C17.763 7.08748 16.713 7.0005 15.75 7.52551C14.7869 8.05053 14.3505 9.10052 14.4375 10.0636C13.4744 9.97662 12.4244 10.413 11.8994 11.3761C11.3744 12.3391 11.4614 13.3891 12.075 14.2636C11.2005 14.7016 10.5 15.5761 10.5 16.6261C10.5 17.6761 11.1119 18.6391 12.075 18.9886C11.463 19.7761 11.3744 20.913 11.8994 21.8761C12.4244 22.8391 13.4744 23.2755 14.4375 23.1886C14.3505 24.1516 14.7869 25.2016 15.75 25.7266C15.75 25.7266 15.8369 25.7266 15.8369 25.8136L13.2119 34.2136L16.5375 32.463L18.2881 35.7886L21 27.1261H21.0869H21.1739L23.8858 35.8755L25.6364 32.55L28.962 34.3005L26.25 25.8136C26.25 25.8136 26.337 25.8136 26.337 25.7266C27.3 25.2016 27.7364 24.1516 27.6495 23.1886C28.6125 23.2755 29.6625 22.8391 30.1875 21.8761C30.7125 20.913 30.6256 19.863 30.012 18.9886C30.8881 18.6375 31.5 17.6744 31.5 16.6244L31.5 16.6244ZM21 22.7506C17.5875 22.7506 14.8756 20.0386 14.8756 16.6261C14.8756 13.2136 17.5875 10.5017 21 10.5017C24.4125 10.5017 27.1244 13.2136 27.1244 16.6261C27.1244 20.037 24.4125 22.7506 21 22.7506Z" fill="black"/>
</svg>
